<svg width="49" height="48" viewBox="0 0 49 48" fill="none" xmlns="http://www.w3.org/2000/svg">
<rect x="1.16663" y="0.5" width="47" height="47" rx="23.5" fill="#E3E9FA"/>
<rect x="1.16663" y="0.5" width="47" height="47" rx="23.5" stroke="#AEC2FD"/>
<path d="M27.6666 14H21.6666C21.1143 14 20.6666 14.4477 20.6666 15V17C20.6666 17.5523 21.1143 18 21.6666 18H27.6666C28.2189 18 28.6666 17.5523 28.6666 17V15C28.6666 14.4477 28.2189 14 27.6666 14Z" stroke="#0B297B" stroke-width="2" stroke-linecap="round" stroke-linejoin="round"/>
<path d="M28.6666 16H30.6666C31.1971 16 31.7058 16.2107 32.0808 16.5858C32.4559 16.9609 32.6666 17.4696 32.6666 18V32C32.6666 32.5304 32.4559 33.0391 32.0808 33.4142C31.7058 33.7893 31.1971 34 30.6666 34H18.6666C18.1362 34 17.6275 33.7893 17.2524 33.4142C16.8773 33.0391 16.6666 32.5304 16.6666 32V18C16.6666 17.4696 16.8773 16.9609 17.2524 16.5858C17.6275 16.2107 18.1362 16 18.6666 16H20.6666" stroke="#0B297B" stroke-width="2" stroke-linecap="round" stroke-linejoin="round"/>
<path d="M21.6666 26L23.6666 28L27.6666 24" stroke="#0B297B" stroke-width="2" stroke-linecap="round" stroke-linejoin="round"/>
</svg>
