<svg width="24" height="24" viewBox="0 0 24 24" fill="none" xmlns="http://www.w3.org/2000/svg">
<path d="M12.5 12.125C11.3815 11.5216 10.3551 11.25 8.99998 11.25C4.93593 11.25 1.57969 14.3249 1.06763 18.3069C0.991098 18.9021 1.4613 19.404 2.0595 19.4513L3.48095 19.5636C7.15168 19.8539 10.8419 19.7882 14.5 19.3675" stroke="#354155" stroke-width="1.5" stroke-linecap="round"/>
<path d="M9 11.25C11.2091 11.25 13 9.5151 13 7.375C13 5.2349 11.2091 3.5 9 3.5C6.79086 3.5 5 5.2349 5 7.375C5 9.5151 6.79086 11.25 9 11.25Z" stroke="#354155" stroke-width="1.5"/>
<path d="M17.5 20.25C20.5376 20.25 23 17.7876 23 14.75C23 11.7124 20.5376 9.25 17.5 9.25C14.4624 9.25 12 11.7124 12 14.75C12 17.7876 14.4624 20.25 17.5 20.25Z" stroke="#354155" stroke-width="1.5"/>
<path d="M9.75 9.375C9.75 9.72018 9.47018 10 9.125 10C8.77983 10 8.5 9.72018 8.5 9.375C8.5 9.02983 8.77983 8.75 9.125 8.75C9.47018 8.75 9.75 9.02983 9.75 9.375Z" fill="#354155"/>
<path d="M8.25 6.57317C8.25 6.11855 8.64175 5.75 9.125 5.75C9.60825 5.75 10 6.11855 10 6.57317C10 6.82702 9.87787 7.05403 9.68587 7.20503C9.4238 7.41113 9.125 7.6666 9.125 8" stroke="#354155" stroke-width="0.5" stroke-linecap="round"/>
<path d="M17.3708 16.4068L15.2122 15.1037C15.0947 15.0327 15.0563 14.8804 15.1262 14.7623L17.2848 11.1137C17.3816 10.9501 17.6184 10.9501 17.7152 11.1137L19.8738 14.7623C19.9437 14.8804 19.9053 15.0327 19.7879 15.1037L17.6292 16.4068C17.5498 16.4547 17.4503 16.4547 17.3708 16.4068Z" fill="#354155"/>
<path d="M17.37 16.9066C16.8367 16.5753 16.0268 16.09 15.5055 15.7792C15.3896 15.7101 15.2625 15.8483 15.3406 15.9583L17.2962 18.7128C17.3958 18.8532 17.6042 18.8532 17.7039 18.7128L19.6523 15.9684C19.7308 15.8579 19.6018 15.719 19.4858 15.7891L17.6318 16.9082C17.551 16.957 17.4502 16.9564 17.37 16.9066Z" fill="#354155"/>
</svg>
