<svg width="24" height="24" viewBox="0 0 24 24" fill="none" xmlns="http://www.w3.org/2000/svg">
<g clip-path="url(#clip0_278_420)">
<path d="M3.99998 9.99997H3.99996C2.34315 10 1 8.65688 1 6.99998V3.99998C1 2.34314 2.34314 1 3.99998 1H6.99998C8.65682 1 9.99997 2.34314 9.99997 3.99998V6.99998C9.99997 8.65682 8.65682 9.99997 6.99998 9.99997H3.99998Z" stroke="#354155" stroke-width="2"/>
<path d="M13.9999 3.99998V3.99996C13.9998 2.34315 15.343 1 16.9999 1H19.9999C21.6567 1 22.9998 2.34314 22.9998 3.99998V6.99998C22.9998 8.65682 21.6567 9.99997 19.9999 9.99997H16.9999C15.343 9.99997 13.9999 8.65682 13.9999 6.99998V3.99998Z" stroke="#354155" stroke-width="2"/>
<path d="M3.99998 23H3.99996C2.34314 23 1 21.6569 1 20V17C1 15.3431 2.34315 14 3.99998 14H6.99998C8.65682 14 9.99997 15.3431 9.99997 17V20C9.99997 21.6568 8.65682 23 6.99998 23H3.99998Z" stroke="#354155" stroke-width="2"/>
<path d="M13.9999 17V17C13.9998 15.3431 15.343 14 16.9999 14H19.9999C21.6567 14 22.9998 15.3431 22.9998 17V20C22.9998 21.6569 21.6567 23 19.9999 23H16.9999C15.343 23 13.9999 21.6569 13.9999 20V17Z" stroke="#354155" stroke-width="2"/>
</g>
<defs>
<clipPath id="clip0_278_420">
<rect width="24" height="24" fill="white"/>
</clipPath>
</defs>
</svg>
