<svg width="34" height="34" viewBox="0 0 34 34" fill="none" xmlns="http://www.w3.org/2000/svg">
<path d="M16.9999 34C26.389 34 33.9999 26.3891 33.9999 17V5.1C33.9999 3.7474 33.4625 2.45019 32.5061 1.49376C31.5497 0.53732 30.2525 0 28.8999 0L17.8499 0V7.4579C17.8499 9.1596 17.9536 10.9225 18.8461 12.3709C19.485 13.4089 20.3397 14.2974 21.3523 14.976C22.3648 15.6546 23.5115 16.1074 24.7145 16.3039L25.04 16.3566C25.1742 16.4024 25.2907 16.4891 25.3732 16.6045C25.4557 16.7199 25.5001 16.8582 25.5001 17C25.5001 17.1418 25.4557 17.2801 25.3732 17.3955C25.2907 17.5109 25.1742 17.5976 25.04 17.6434L24.7145 17.6961C22.9568 17.9833 21.3337 18.8152 20.0744 20.0746C18.8151 21.3339 17.9831 22.9569 17.696 24.7146L17.6433 25.0401C17.5974 25.1744 17.5107 25.2909 17.3954 25.3734C17.28 25.4559 17.1417 25.5002 16.9999 25.5002C16.858 25.5002 16.7197 25.4559 16.6044 25.3734C16.489 25.2909 16.4023 25.1744 16.3564 25.0401L16.3037 24.7146C16.1073 23.5116 15.6544 22.365 14.9758 21.3525C14.2972 20.3399 13.4088 19.4852 12.3708 18.8462C10.9224 17.9537 9.15946 17.85 7.45776 17.85H0.0202637C0.464814 26.8439 7.89636 34 16.9999 34Z" fill="#3363FF"/>
<path d="M0.00012207 16.15H7.45802C9.15972 16.15 10.9226 16.0463 12.371 15.1538C13.5032 14.4562 14.4563 13.5031 15.1539 12.3709C16.0464 10.9225 16.1501 9.1596 16.1501 7.4579V0H5.10012C3.74752 0 2.45031 0.53732 1.49388 1.49376C0.537442 2.45019 0.00012207 3.7474 0.00012207 5.1L0.00012207 16.15Z" fill="#3363FF"/>
</svg>
