<svg width="59" height="59" viewBox="0 0 59 59" fill="none" xmlns="http://www.w3.org/2000/svg">
<g filter="url(#filter0_i_99_21253)">
<rect width="58.121" height="58.121" rx="15.81" fill="#262EFF"/>
<path d="M29.9355 22.9355V16.8105H22.0605C21.3643 16.8105 20.6966 17.0871 20.2044 17.5794C19.7121 18.0716 19.4355 18.7393 19.4355 19.4355V28.294C20.4343 27.8581 21.526 27.6778 22.612 27.7694C23.6979 27.8609 24.744 28.2215 25.6557 28.8186C26.5674 29.4156 27.3161 30.2303 27.8342 31.1891C28.3522 32.148 28.6233 33.2207 28.623 34.3105C28.623 35.287 28.4043 36.2556 27.9799 37.135L30.17 39.326C30.4258 39.5817 30.6141 39.8968 30.7183 40.2431C30.8224 40.5894 30.8391 40.9562 30.7668 41.3105H36.0605C36.7567 41.3105 37.4244 41.034 37.9167 40.5417C38.4089 40.0494 38.6855 39.3817 38.6855 38.6855V25.5605H32.5605C31.8643 25.5605 31.1966 25.284 30.7044 24.7917C30.2121 24.2994 29.9355 23.6317 29.9355 22.9355ZM31.6855 22.9355V16.9129C32.113 17.0357 32.5023 17.2651 32.8169 17.5796L37.9164 22.6791C38.2309 22.9937 38.4603 23.383 38.5831 23.8105H32.5605C32.3284 23.8105 32.1059 23.7183 31.9418 23.5542C31.7777 23.3901 31.6855 23.1676 31.6855 22.9355ZM22.0605 39.5605C23.1945 39.5605 24.2445 39.2018 25.102 38.5893L28.0044 41.4916C28.1694 41.651 28.3904 41.7392 28.6199 41.7372C28.8493 41.7352 29.0687 41.6432 29.231 41.481C29.3932 41.3188 29.4852 41.0993 29.4872 40.8699C29.4892 40.6404 29.401 40.4194 29.2416 40.2544L26.3401 37.3529C27.0222 36.3937 27.3621 35.2332 27.3054 34.0577C27.2488 32.8822 26.7987 31.7597 26.0276 30.8707C25.2565 29.9816 24.209 29.3774 23.0533 29.155C21.8975 28.9327 20.7006 29.1052 19.6547 29.6447C18.6087 30.1843 17.7744 31.0596 17.2857 32.1302C16.7969 33.2009 16.6821 34.4046 16.9595 35.5484C17.237 36.6921 17.8908 37.7094 18.8158 38.437C19.7409 39.1646 20.8836 39.5603 22.0605 39.5605ZM22.0605 37.8105C21.1322 37.8105 20.242 37.4418 19.5856 36.7854C18.9293 36.129 18.5605 35.2388 18.5605 34.3105C18.5605 33.3823 18.9293 32.492 19.5856 31.8356C20.242 31.1793 21.1322 30.8105 22.0605 30.8105C22.9888 30.8105 23.879 31.1793 24.5354 31.8356C25.1918 32.492 25.5605 33.3823 25.5605 34.3105C25.5605 35.2388 25.1918 36.129 24.5354 36.7854C23.879 37.4418 22.9888 37.8105 22.0605 37.8105Z" fill="white"/>
</g>
<defs>
<filter id="filter0_i_99_21253" x="0" y="-2.78981" width="58.1211" height="60.9108" filterUnits="userSpaceOnUse" color-interpolation-filters="sRGB">
<feFlood flood-opacity="0" result="BackgroundImageFix"/>
<feBlend mode="normal" in="SourceGraphic" in2="BackgroundImageFix" result="shape"/>
<feColorMatrix in="SourceAlpha" type="matrix" values="0 0 0 0 0 0 0 0 0 0 0 0 0 0 0 0 0 0 127 0" result="hardAlpha"/>
<feOffset dy="-2.78981"/>
<feGaussianBlur stdDeviation="6.97452"/>
<feComposite in2="hardAlpha" operator="arithmetic" k2="-1" k3="1"/>
<feColorMatrix type="matrix" values="0 0 0 0 0.420833 0 0 0 0 0.442059 0 0 0 0 1 0 0 0 1 0"/>
<feBlend mode="normal" in2="shape" result="effect1_innerShadow_99_21253"/>
</filter>
</defs>
</svg>
