<svg width="18" height="20" viewBox="0 0 18 20" fill="none" xmlns="http://www.w3.org/2000/svg">
<path d="M17.193 5.0674L12.4381 0.464935C12.149 0.18363 11.7544 0.0234421 11.3481 0.0234421L2.39321 0C1.30706 0 0.424072 0.875171 0.424072 1.95351V18.0426C0.424072 19.1014 1.33441 20 2.41274 20H15.6575C16.7163 20 17.5759 19.1209 17.5759 18.0387V6.00117C17.5759 5.63782 17.4391 5.30572 17.193 5.0674ZM12.4186 2.62161L14.8761 4.99707H12.8445C12.6179 4.99707 12.4186 4.82125 12.4186 4.622V2.62161ZM15.6575 18.4372H2.41274C2.19395 18.4372 1.98688 18.2458 1.98688 18.0387V1.95351C1.98688 1.74643 2.17832 1.56281 2.39321 1.56281L10.8558 1.58625V4.622C10.8558 5.68861 11.7466 6.55988 12.8445 6.55988H16.0131V18.0387C16.0131 18.234 15.8802 18.4372 15.6575 18.4372Z" fill="#354155"/>
<path d="M3.82312 10.4278C3.82312 10.8575 4.17475 11.2092 4.60452 11.2092H11.4418C11.8716 11.2092 12.2232 10.8575 12.2232 10.4278C12.2232 9.99799 11.8716 9.64636 11.4418 9.64636H4.60452C4.17475 9.64636 3.82312 9.99799 3.82312 10.4278Z" fill="#354155"/>
<path d="M4.56546 8.08356H9.0976C9.52737 8.08356 9.879 7.73193 9.879 7.30215C9.879 6.87238 9.52737 6.52075 9.0976 6.52075H4.56546C4.13569 6.52075 3.78406 6.87238 3.78406 7.30215C3.78406 7.73193 4.13569 8.08356 4.56546 8.08356Z" fill="#354155"/>
<path d="M13.3953 12.772H4.60452C4.17475 12.772 3.82312 13.1236 3.82312 13.5534C3.82312 13.9831 4.17475 14.3348 4.60452 14.3348H13.3953C13.8251 14.3348 14.1767 13.9831 14.1767 13.5534C14.1767 13.1236 13.8251 12.772 13.3953 12.772Z" fill="#354155"/>
</svg>
