<svg width="59" height="59" viewBox="0 0 59 59" fill="none" xmlns="http://www.w3.org/2000/svg">
<g filter="url(#filter0_i_99_21307)">
<rect y="0.121033" width="58.121" height="58.121" rx="15.81" fill="#262EFF"/>
<g clip-path="url(#clip0_99_21307)">
<path d="M35.2687 14.9999H23.2812C22.1458 14.9999 21.0568 15.4509 20.2539 16.2538C19.4511 17.0567 19 18.1456 19 19.2811V38.1186C19 39.2541 19.4511 40.343 20.2539 41.1459C21.0568 41.9488 22.1458 42.3999 23.2812 42.3999H35.2687C36.4042 42.3999 37.4932 41.9488 38.2961 41.1459C39.0989 40.343 39.55 39.2541 39.55 38.1186V19.2811C39.55 18.1456 39.0989 17.0567 38.2961 16.2538C37.4932 15.4509 36.4042 14.9999 35.2687 14.9999ZM24.9938 18.4249H33.5562C34.2375 18.4249 34.8909 18.6955 35.3726 19.1772C35.8544 19.659 36.125 20.3123 36.125 20.9936V22.7061C36.125 23.3874 35.8544 24.0408 35.3726 24.5225C34.8909 25.0042 34.2375 25.2749 33.5562 25.2749H24.9938C24.3125 25.2749 23.6591 25.0042 23.1774 24.5225C22.6956 24.0408 22.425 23.3874 22.425 22.7061V20.9936C22.425 20.3123 22.6956 19.659 23.1774 19.1772C23.6591 18.6955 24.3125 18.4249 24.9938 18.4249ZM25.85 30.4124C25.85 30.8665 25.6696 31.3021 25.3484 31.6233C25.0273 31.9444 24.5917 32.1249 24.1375 32.1249C23.6833 32.1249 23.2477 31.9444 22.9266 31.6233C22.6054 31.3021 22.425 30.8665 22.425 30.4124C22.425 29.9582 22.6054 29.5226 22.9266 29.2014C23.2477 28.8803 23.6833 28.6999 24.1375 28.6999C24.5917 28.6999 25.0273 28.8803 25.3484 29.2014C25.6696 29.5226 25.85 29.9582 25.85 30.4124ZM25.85 35.5499C25.85 36.004 25.6696 36.4396 25.3484 36.7608C25.0273 37.0819 24.5917 37.2624 24.1375 37.2624C23.6833 37.2624 23.2477 37.0819 22.9266 36.7608C22.6054 36.4396 22.425 36.004 22.425 35.5499C22.425 35.0957 22.6054 34.6601 22.9266 34.3389C23.2477 34.0178 23.6833 33.8374 24.1375 33.8374C24.5917 33.8374 25.0273 34.0178 25.3484 34.3389C25.6696 34.6601 25.85 35.0957 25.85 35.5499ZM34.4125 32.1249C33.9583 32.1249 33.5227 31.9444 33.2016 31.6233C32.8804 31.3021 32.7 30.8665 32.7 30.4124C32.7 29.9582 32.8804 29.5226 33.2016 29.2014C33.5227 28.8803 33.9583 28.6999 34.4125 28.6999C34.8667 28.6999 35.3023 28.8803 35.6234 29.2014C35.9446 29.5226 36.125 29.9582 36.125 30.4124C36.125 30.8665 35.9446 31.3021 35.6234 31.6233C35.3023 31.9444 34.8667 32.1249 34.4125 32.1249ZM36.125 35.5499C36.125 36.004 35.9446 36.4396 35.6234 36.7608C35.3023 37.0819 34.8667 37.2624 34.4125 37.2624C33.9583 37.2624 33.5227 37.0819 33.2016 36.7608C32.8804 36.4396 32.7 36.004 32.7 35.5499C32.7 35.0957 32.8804 34.6601 33.2016 34.3389C33.5227 34.0178 33.9583 33.8374 34.4125 33.8374C34.8667 33.8374 35.3023 34.0178 35.6234 34.3389C35.9446 34.6601 36.125 35.0957 36.125 35.5499ZM29.275 32.1249C28.8208 32.1249 28.3852 31.9444 28.0641 31.6233C27.7429 31.3021 27.5625 30.8665 27.5625 30.4124C27.5625 29.9582 27.7429 29.5226 28.0641 29.2014C28.3852 28.8803 28.8208 28.6999 29.275 28.6999C29.7292 28.6999 30.1648 28.8803 30.4859 29.2014C30.8071 29.5226 30.9875 29.9582 30.9875 30.4124C30.9875 30.8665 30.8071 31.3021 30.4859 31.6233C30.1648 31.9444 29.7292 32.1249 29.275 32.1249ZM30.9875 35.5499C30.9875 36.004 30.8071 36.4396 30.4859 36.7608C30.1648 37.0819 29.7292 37.2624 29.275 37.2624C28.8208 37.2624 28.3852 37.0819 28.0641 36.7608C27.7429 36.4396 27.5625 36.004 27.5625 35.5499C27.5625 35.0957 27.7429 34.6601 28.0641 34.3389C28.3852 34.0178 28.8208 33.8374 29.275 33.8374C29.7292 33.8374 30.1648 34.0178 30.4859 34.3389C30.8071 34.6601 30.9875 35.0957 30.9875 35.5499Z" fill="white"/>
</g>
</g>
<defs>
<filter id="filter0_i_99_21307" x="0" y="-2.66878" width="58.1211" height="60.9108" filterUnits="userSpaceOnUse" color-interpolation-filters="sRGB">
<feFlood flood-opacity="0" result="BackgroundImageFix"/>
<feBlend mode="normal" in="SourceGraphic" in2="BackgroundImageFix" result="shape"/>
<feColorMatrix in="SourceAlpha" type="matrix" values="0 0 0 0 0 0 0 0 0 0 0 0 0 0 0 0 0 0 127 0" result="hardAlpha"/>
<feOffset dy="-2.78981"/>
<feGaussianBlur stdDeviation="6.97452"/>
<feComposite in2="hardAlpha" operator="arithmetic" k2="-1" k3="1"/>
<feColorMatrix type="matrix" values="0 0 0 0 0.420833 0 0 0 0 0.442059 0 0 0 0 1 0 0 0 1 0"/>
<feBlend mode="normal" in2="shape" result="effect1_innerShadow_99_21307"/>
</filter>
<clipPath id="clip0_99_21307">
<rect width="28" height="28" fill="white" transform="translate(15.0605 15.1815)"/>
</clipPath>
</defs>
</svg>
