<svg width="11" height="6" viewBox="0 0 11 6" fill="none" xmlns="http://www.w3.org/2000/svg">
<path fill-rule="evenodd" clip-rule="evenodd" d="M10.2117 0.353922C10.1612 0.231422 10.0637 0.133922 9.9412 0.0834219C9.8802 0.0579219 9.8152 0.0449219 9.7502 0.0449219H7.2957C7.0192 0.0449219 6.7957 0.268422 6.7957 0.544922C6.7957 0.821422 7.0192 1.04492 7.2957 1.04492H8.5427L5.8637 3.7229L4.1722 2.0309C3.98469 1.84342 3.65319 1.84342 3.46519 2.0309L0.396188 5.1014C0.201188 5.2969 0.201188 5.6134 0.396688 5.8084C0.494188 5.9059 0.622188 5.9549 0.750188 5.9549C0.878188 5.9549 1.00619 5.9059 1.10369 5.8084L3.81869 3.0919L5.5097 4.7834C5.7052 4.9789 6.0217 4.9789 6.2172 4.7834L9.2502 1.75142V2.9999C9.2502 3.2764 9.4737 3.4999 9.7502 3.4999C10.0267 3.4999 10.2502 3.2764 10.2502 2.9999V0.544922C10.2502 0.479922 10.2367 0.414922 10.2117 0.353922Z" fill="#395917"/>
</svg>
