<svg width="32" height="33" viewBox="0 0 32 33" fill="none" xmlns="http://www.w3.org/2000/svg">
<rect y="0.242188" width="32" height="32" rx="16" fill="#3D3F3F"/>
<path d="M9.95833 7.80469C9.48868 7.80469 9.03826 7.99126 8.70617 8.32335C8.37407 8.65545 8.1875 9.10587 8.1875 9.57552C8.1875 10.0452 8.37407 10.4956 8.70617 10.8277C9.03826 11.1598 9.48868 11.3464 9.95833 11.3464C10.428 11.3464 10.8784 11.1598 11.2105 10.8277C11.5426 10.4956 11.7292 10.0452 11.7292 9.57552C11.7292 9.10587 11.5426 8.65545 11.2105 8.32335C10.8784 7.99126 10.428 7.80469 9.95833 7.80469ZM8.29167 12.8047C8.26404 12.8047 8.23754 12.8157 8.21801 12.8352C8.19847 12.8547 8.1875 12.8812 8.1875 12.9089V23.7422C8.1875 23.7997 8.23417 23.8464 8.29167 23.8464H11.625C11.6526 23.8464 11.6791 23.8354 11.6987 23.8158C11.7182 23.7963 11.7292 23.7698 11.7292 23.7422V12.9089C11.7292 12.8812 11.7182 12.8547 11.6987 12.8352C11.6791 12.8157 11.6526 12.8047 11.625 12.8047H8.29167ZM13.7083 12.8047C13.6807 12.8047 13.6542 12.8157 13.6347 12.8352C13.6151 12.8547 13.6042 12.8812 13.6042 12.9089V23.7422C13.6042 23.7997 13.6508 23.8464 13.7083 23.8464H17.0417C17.0693 23.8464 17.0958 23.8354 17.1153 23.8158C17.1349 23.7963 17.1458 23.7698 17.1458 23.7422V17.9089C17.1458 17.4945 17.3105 17.097 17.6035 16.804C17.8965 16.511 18.2939 16.3464 18.7083 16.3464C19.1227 16.3464 19.5202 16.511 19.8132 16.804C20.1062 17.097 20.2708 17.4945 20.2708 17.9089V23.7422C20.2708 23.7997 20.3175 23.8464 20.375 23.8464H23.7083C23.736 23.8464 23.7625 23.8354 23.782 23.8158C23.8015 23.7963 23.8125 23.7698 23.8125 23.7422V16.5589C23.8125 14.5364 22.0542 12.9547 20.0417 13.1372C19.4191 13.1943 18.8092 13.3484 18.2342 13.5939L17.1458 14.0605V12.9089C17.1458 12.8812 17.1349 12.8547 17.1153 12.8352C17.0958 12.8157 17.0693 12.8047 17.0417 12.8047H13.7083Z" fill="white"/>
</svg>
