<svg width="35" height="34" viewBox="0 0 35 34" fill="none" xmlns="http://www.w3.org/2000/svg">
<rect y="0.0744629" width="34.8511" height="33.8511" rx="8" fill="#2238DF"/>
<path d="M23.0238 15.0525H20.2439C20.1931 14.6929 20.0895 14.3734 19.9329 14.0942C19.7764 13.8107 19.5754 13.5695 19.33 13.3706C19.0846 13.1718 18.8011 13.0195 18.4795 12.9137C18.1622 12.8079 17.8173 12.755 17.445 12.755C16.7722 12.755 16.1862 12.9221 15.687 13.2564C15.1877 13.5864 14.8005 14.0688 14.5255 14.7035C14.2505 15.3339 14.113 16.0997 14.113 17.001C14.113 17.9276 14.2505 18.7061 14.5255 19.3366C14.8048 19.967 15.194 20.443 15.6933 20.7646C16.1926 21.0861 16.7701 21.2469 17.426 21.2469C17.7941 21.2469 18.1347 21.1983 18.4478 21.1009C18.7651 21.0036 19.0465 20.8619 19.2919 20.6757C19.5373 20.4853 19.7404 20.2547 19.9012 19.9839C20.0662 19.7131 20.1804 19.4043 20.2439 19.0573L23.0238 19.07C22.9518 19.6666 22.772 20.242 22.4843 20.7963C22.2008 21.3463 21.8179 21.8393 21.3355 22.2751C20.8574 22.7067 20.2862 23.0494 19.6219 23.3033C18.9619 23.5529 18.2151 23.6777 17.3815 23.6777C16.2222 23.6777 15.1856 23.4154 14.2716 22.8907C13.3619 22.3661 12.6427 21.6066 12.1138 20.6122C11.5891 19.6179 11.3268 18.4142 11.3268 17.001C11.3268 15.5835 11.5933 14.3777 12.1265 13.3833C12.6596 12.389 13.3831 11.6316 14.297 11.1112C15.211 10.5866 16.2391 10.3242 17.3815 10.3242C18.1347 10.3242 18.8328 10.43 19.4759 10.6416C20.1233 10.8531 20.6966 11.162 21.1959 11.5682C21.6952 11.9701 22.1014 12.4631 22.4145 13.047C22.7318 13.6309 22.9349 14.2994 23.0238 15.0525Z" fill="white"/>
</svg>
