<svg width="24" height="26" viewBox="0 0 24 26" fill="none" xmlns="http://www.w3.org/2000/svg">
<path d="M16 19.6667H22.6666L20.7934 17.7934C20.2854 17.2854 20 16.5964 20 15.8779V11.6667C20 8.18342 17.7738 5.22012 14.6666 4.12189V3.66667C14.6666 2.19391 13.4727 1 12 1C10.5272 1 9.33331 2.19391 9.33331 3.66667V4.12189C6.22613 5.22012 3.99998 8.18342 3.99998 11.6667V15.8779C3.99998 16.5964 3.71458 17.2854 3.20656 17.7934L1.33331 19.6667H7.99998M16 19.6667V21C16 23.2091 14.2091 25 12 25C9.79084 25 7.99998 23.2091 7.99998 21V19.6667M16 19.6667H7.99998" stroke="#354155" stroke-width="2" stroke-linecap="round" stroke-linejoin="round"/>
</svg>
