<svg width="24" height="24" viewBox="0 0 24 24" fill="none" xmlns="http://www.w3.org/2000/svg">
<path d="M21 3.75H3C2.40326 3.75 1.83097 3.98705 1.40901 4.40901C0.987053 4.83097 0.75 5.40326 0.75 6V18C0.75 18.5967 0.987053 19.169 1.40901 19.591C1.83097 20.0129 2.40326 20.25 3 20.25H21C21.5967 20.25 22.169 20.0129 22.591 19.591C23.0129 19.169 23.25 18.5967 23.25 18V6C23.25 5.40326 23.0129 4.83097 22.591 4.40901C22.169 3.98705 21.5967 3.75 21 3.75ZM3 5.25H21C21.1989 5.25 21.3897 5.32902 21.5303 5.46967C21.671 5.61032 21.75 5.80109 21.75 6V7.5H2.25V6C2.25 5.80109 2.32902 5.61032 2.46967 5.46967C2.61032 5.32902 2.80109 5.25 3 5.25ZM21.75 10.5H2.25V9H21.75V10.5ZM21 18.75H3C2.80109 18.75 2.61032 18.671 2.46967 18.5303C2.32902 18.3897 2.25 18.1989 2.25 18V12H21.75V18C21.75 18.1989 21.671 18.3897 21.5303 18.5303C21.3897 18.671 21.1989 18.75 21 18.75Z" fill="#354155"/>
<path d="M18.75 15H13.5C13.3011 15 13.1103 15.079 12.9697 15.2197C12.829 15.3603 12.75 15.5511 12.75 15.75C12.75 15.9489 12.829 16.1397 12.9697 16.2803C13.1103 16.421 13.3011 16.5 13.5 16.5H18.75C18.9489 16.5 19.1397 16.421 19.2803 16.2803C19.421 16.1397 19.5 15.9489 19.5 15.75C19.5 15.5511 19.421 15.3603 19.2803 15.2197C19.1397 15.079 18.9489 15 18.75 15Z" fill="#354155"/>
</svg>
