<svg width="19" height="19" viewBox="0 0 19 19" fill="none" xmlns="http://www.w3.org/2000/svg">
<path d="M3.2115 6.82011C3.10203 6.32701 3.11884 5.81425 3.26037 5.32937C3.40189 4.84449 3.66356 4.4032 4.0211 4.04641C4.37864 3.68961 4.82048 3.42887 5.30565 3.28836C5.79083 3.14785 6.30362 3.13211 6.7965 3.24261C7.06778 2.81834 7.4415 2.46918 7.88321 2.22733C8.32492 1.98547 8.82041 1.8587 9.324 1.8587C9.82759 1.8587 10.3231 1.98547 10.7648 2.22733C11.2065 2.46918 11.5802 2.81834 11.8515 3.24261C12.3451 3.13163 12.8588 3.1473 13.3447 3.28815C13.8307 3.429 14.2731 3.69047 14.6309 4.04823C14.9886 4.40599 15.2501 4.84842 15.391 5.33437C15.5318 5.82031 15.5475 6.33399 15.4365 6.82761C15.8608 7.0989 16.2099 7.47262 16.4518 7.91433C16.6936 8.35604 16.8204 8.85153 16.8204 9.35511C16.8204 9.8587 16.6936 10.3542 16.4518 10.7959C16.2099 11.2376 15.8608 11.6113 15.4365 11.8826C15.547 12.3755 15.5313 12.8883 15.3908 13.3735C15.2502 13.8586 14.9895 14.3005 14.6327 14.658C14.2759 15.0156 13.8346 15.2772 13.3497 15.4187C12.8649 15.5603 12.3521 15.5771 11.859 15.4676C11.5881 15.8935 11.2141 16.2442 10.7716 16.4871C10.3291 16.73 9.83252 16.8574 9.32775 16.8574C8.82298 16.8574 8.32637 16.73 7.8839 16.4871C7.44144 16.2442 7.06743 15.8935 6.7965 15.4676C6.30362 15.5781 5.79083 15.5624 5.30565 15.4219C4.82048 15.2814 4.37864 15.0206 4.0211 14.6638C3.66356 14.307 3.40189 13.8657 3.26037 13.3809C3.11884 12.896 3.10203 12.3832 3.2115 11.8901C2.78396 11.6195 2.43181 11.2452 2.18778 10.802C1.94376 10.3588 1.8158 9.86107 1.8158 9.35511C1.8158 8.84916 1.94376 8.35142 2.18778 7.9082C2.43181 7.46498 2.78396 7.09068 3.2115 6.82011Z" stroke="#616161" stroke-width="1.5" stroke-linecap="round" stroke-linejoin="round"/>
<path d="M11.574 7.1051L7.07397 11.6051" stroke="#616161" stroke-width="1.5" stroke-linecap="round" stroke-linejoin="round"/>
<path d="M7.07397 7.1051H7.08064" stroke="#616161" stroke-width="1.5" stroke-linecap="round" stroke-linejoin="round"/>
<path d="M11.574 11.6051H11.5806" stroke="#616161" stroke-width="1.5" stroke-linecap="round" stroke-linejoin="round"/>
</svg>
