<svg width="15" height="18" viewBox="0 0 15 18" fill="none" xmlns="http://www.w3.org/2000/svg">
<path d="M1.906 1.5369C1.81491 1.48289 1.71114 1.45395 1.60524 1.45303C1.49934 1.4521 1.39508 1.47922 1.30306 1.53163C1.21104 1.58404 1.13452 1.65988 1.0813 1.75143C1.02807 1.84299 1.00002 1.947 1 2.0529V15.9469C1.00002 16.0528 1.02807 16.1568 1.0813 16.2484C1.13452 16.3399 1.21104 16.4158 1.30306 16.4682C1.39508 16.5206 1.49934 16.5477 1.60524 16.5468C1.71114 16.5458 1.81491 16.5169 1.906 16.4629L13.629 9.5159C13.7185 9.46277 13.7927 9.38726 13.8442 9.29679C13.8957 9.20632 13.9228 9.10401 13.9228 8.9999C13.9228 8.89579 13.8957 8.79347 13.8442 8.703C13.7927 8.61253 13.7185 8.53702 13.629 8.4839L1.906 1.5369Z" fill="white" stroke="white" stroke-width="1.5" stroke-linecap="round" stroke-linejoin="round"/>
</svg>
