<svg width="49" height="48" viewBox="0 0 49 48" fill="none" xmlns="http://www.w3.org/2000/svg">
<rect x="0.833374" y="0.5" width="47" height="47" rx="23.5" fill="#F7FAE3"/>
<rect x="0.833374" y="0.5" width="47" height="47" rx="23.5" stroke="#CFFD50"/>
<path d="M16.1833 20.62C16.0374 19.9625 16.0598 19.2788 16.2485 18.6323C16.4372 17.9858 16.7861 17.3974 17.2628 16.9217C17.7395 16.446 18.3286 16.0983 18.9755 15.911C19.6224 15.7236 20.3062 15.7026 20.9633 15.85C21.325 15.2843 21.8233 14.8187 22.4123 14.4963C23.0012 14.1738 23.6619 14.0048 24.3333 14.0048C25.0048 14.0048 25.6654 14.1738 26.2544 14.4963C26.8433 14.8187 27.3416 15.2843 27.7033 15.85C28.3615 15.702 29.0464 15.7229 29.6943 15.9107C30.3422 16.0985 30.9322 16.4471 31.4092 16.9241C31.8862 17.4011 32.2348 17.991 32.4226 18.639C32.6104 19.2869 32.6313 19.9718 32.4833 20.63C33.049 20.9917 33.5146 21.49 33.837 22.0789C34.1595 22.6679 34.3285 23.3285 34.3285 24C34.3285 24.6714 34.1595 25.3321 33.837 25.921C33.5146 26.51 33.049 27.0083 32.4833 27.37C32.6307 28.0271 32.6097 28.7109 32.4223 29.3578C32.235 30.0047 31.8873 30.5938 31.4116 31.0705C30.9359 31.5472 30.3475 31.8961 29.701 32.0848C29.0545 32.2735 28.3708 32.2959 27.7133 32.15C27.3521 32.7178 26.8534 33.1854 26.2634 33.5093C25.6735 33.8332 25.0113 34.003 24.3383 34.003C23.6653 34.003 23.0031 33.8332 22.4132 33.5093C21.8232 33.1854 21.3246 32.7178 20.9633 32.15C20.3062 32.2973 19.6224 32.2763 18.9755 32.089C18.3286 31.9016 17.7395 31.554 17.2628 31.0783C16.7861 30.6025 16.4372 30.0141 16.2485 29.3676C16.0598 28.7211 16.0374 28.0374 16.1833 27.38C15.6133 27.0192 15.1437 26.5201 14.8184 25.9292C14.493 25.3382 14.3224 24.6746 14.3224 24C14.3224 23.3254 14.493 22.6617 14.8184 22.0708C15.1437 21.4798 15.6133 20.9807 16.1833 20.62Z" stroke="#6A7903" stroke-width="2" stroke-linecap="round" stroke-linejoin="round"/>
<path d="M27.3334 21L21.3334 27" stroke="#6A7903" stroke-width="2" stroke-linecap="round" stroke-linejoin="round"/>
<path d="M21.3334 21H21.3434" stroke="#6A7903" stroke-width="2" stroke-linecap="round" stroke-linejoin="round"/>
<path d="M27.3334 27H27.3434" stroke="#6A7903" stroke-width="2" stroke-linecap="round" stroke-linejoin="round"/>
</svg>
