<svg width="59" height="59" viewBox="0 0 59 59" fill="none" xmlns="http://www.w3.org/2000/svg">
<g filter="url(#filter0_i_99_20905)">
<rect width="58.121" height="58.121" rx="15.81" fill="#262EFF"/>
<path d="M36.1885 38.599H39.1862C40.5743 38.599 41.2785 37.9354 41.2785 36.6174V21.9919C41.2785 20.6739 40.5743 19.9999 39.1862 19.9999H36.1889C34.8108 19.9999 34.0962 20.6739 34.0962 21.9915V36.6178C34.0962 37.9354 34.8108 38.599 36.1885 38.599ZM27.1356 38.5995H30.1329C31.5214 38.5995 32.2356 37.9359 32.2356 36.6178V24.9292C32.2356 23.6116 31.5214 22.9376 30.1329 22.9376H27.1356C25.7575 22.9376 25.0533 23.6116 25.0533 24.9292V36.6183C25.0533 37.9359 25.7575 38.5995 27.1356 38.5995ZM18.0922 38.5999H21.0896C22.4781 38.5999 23.1823 37.9363 23.1823 36.6183V27.8566C23.1823 26.5385 22.4781 25.865 21.09 25.865H18.0927C16.7137 25.8645 16 26.5385 16 27.8561V36.6178C16 37.9354 16.7141 38.5999 18.0922 38.5999Z" fill="white"/>
</g>
<defs>
<filter id="filter0_i_99_20905" x="0" y="-2.78981" width="58.1211" height="60.9108" filterUnits="userSpaceOnUse" color-interpolation-filters="sRGB">
<feFlood flood-opacity="0" result="BackgroundImageFix"/>
<feBlend mode="normal" in="SourceGraphic" in2="BackgroundImageFix" result="shape"/>
<feColorMatrix in="SourceAlpha" type="matrix" values="0 0 0 0 0 0 0 0 0 0 0 0 0 0 0 0 0 0 127 0" result="hardAlpha"/>
<feOffset dy="-2.78981"/>
<feGaussianBlur stdDeviation="6.97452"/>
<feComposite in2="hardAlpha" operator="arithmetic" k2="-1" k3="1"/>
<feColorMatrix type="matrix" values="0 0 0 0 0.420833 0 0 0 0 0.442059 0 0 0 0 1 0 0 0 1 0"/>
<feBlend mode="normal" in2="shape" result="effect1_innerShadow_99_20905"/>
</filter>
</defs>
</svg>
