<svg width="30" height="31" viewBox="0 0 30 31" fill="none" xmlns="http://www.w3.org/2000/svg">
<rect x="0.5" y="1" width="29" height="29" rx="14.5" fill="white"/>
<rect x="0.5" y="1" width="29" height="29" rx="14.5" stroke="#E7E7E7"/>
<path d="M14.625 17.75H11.25C10.4544 17.75 9.69129 18.0661 9.12868 18.6287C8.56607 19.1913 8.25 19.9544 8.25 20.75V22.25" stroke="#5D6777" stroke-width="2" stroke-linecap="round" stroke-linejoin="round"/>
<path d="M22.0335 18.9695C22.3322 18.6707 22.5001 18.2655 22.5001 17.843C22.5001 17.4205 22.3322 17.0153 22.0335 16.7165C21.7347 16.4177 21.3295 16.2499 20.907 16.2499C20.4845 16.2499 20.0792 16.4177 19.7805 16.7165L16.773 19.7255C16.5947 19.9037 16.4641 20.124 16.3935 20.366L15.7657 22.5185C15.7469 22.583 15.7458 22.6514 15.7625 22.7166C15.7791 22.7817 15.813 22.8411 15.8606 22.8887C15.9081 22.9362 15.9675 22.9701 16.0327 22.9868C16.0978 23.0034 16.1662 23.0023 16.2307 22.9835L18.3832 22.3557C18.6252 22.2851 18.8455 22.1546 19.0237 21.9762L22.0335 18.9695Z" stroke="#5D6777" stroke-width="2" stroke-linecap="round" stroke-linejoin="round"/>
<path d="M13.5 14.75C15.1569 14.75 16.5 13.4069 16.5 11.75C16.5 10.0931 15.1569 8.75 13.5 8.75C11.8431 8.75 10.5 10.0931 10.5 11.75C10.5 13.4069 11.8431 14.75 13.5 14.75Z" stroke="#5D6777" stroke-width="2" stroke-linecap="round" stroke-linejoin="round"/>
</svg>
