<svg width="48" height="48" viewBox="0 0 48 48" fill="none" xmlns="http://www.w3.org/2000/svg">
<rect x="0.5" y="0.5" width="47" height="47" rx="23.5" fill="#FAEAE3"/>
<rect x="0.5" y="0.5" width="47" height="47" rx="23.5" stroke="#FD6450"/>
<path d="M26 14V18C26 18.5304 26.2107 19.0391 26.5858 19.4142C26.9609 19.7893 27.4696 20 28 20H32" stroke="#FD6450" stroke-width="2" stroke-linecap="round" stroke-linejoin="round"/>
<path d="M16.268 33C16.4431 33.3033 16.6948 33.5553 16.9979 33.7308C17.3009 33.9063 17.6448 33.9991 17.995 34H30C30.5304 34 31.0391 33.7893 31.4142 33.4142C31.7893 33.0391 32 32.5304 32 32V19L27 14H18C17.4696 14 16.9609 14.2107 16.5858 14.5858C16.2107 14.9609 16 15.4696 16 16V19" stroke="#FD6450" stroke-width="2" stroke-linecap="round" stroke-linejoin="round"/>
<path d="M21 30L19.5 28.5" stroke="#FD6450" stroke-width="2" stroke-linecap="round" stroke-linejoin="round"/>
<path d="M17 29C18.6569 29 20 27.6569 20 26C20 24.3431 18.6569 23 17 23C15.3431 23 14 24.3431 14 26C14 27.6569 15.3431 29 17 29Z" stroke="#FD6450" stroke-width="2" stroke-linecap="round" stroke-linejoin="round"/>
</svg>
