<svg width="34" height="34" viewBox="0 0 34 34" fill="none" xmlns="http://www.w3.org/2000/svg">
<path d="M22.8043 20.5485C22.6056 20.5484 22.415 20.4694 22.2745 20.3289C22.1339 20.1883 22.0549 19.9978 22.0548 19.799L22.0548 12.7704L11.8442 22.981C11.7035 23.1216 11.5128 23.2007 11.3139 23.2007C11.1149 23.2007 10.9242 23.1216 10.7835 22.981C10.6429 22.8403 10.5639 22.6496 10.5639 22.4507C10.5639 22.2517 10.6429 22.061 10.7835 21.9203L20.9941 11.7097H13.9655C13.8309 11.7147 13.6974 11.6833 13.5791 11.6188C13.4608 11.5542 13.3622 11.459 13.2935 11.3431C13.2248 11.2272 13.1886 11.095 13.1888 10.9602C13.189 10.8255 13.2255 10.6933 13.2945 10.5776C13.3631 10.4619 13.4616 10.3667 13.5797 10.3022C13.6978 10.2376 13.831 10.206 13.9655 10.2106L22.8043 10.2106C23.0031 10.2108 23.1937 10.2898 23.3342 10.4303C23.4747 10.5708 23.5538 10.7614 23.5539 10.9602L23.5539 19.799C23.5538 19.9978 23.4747 20.1883 23.3342 20.3289C23.1937 20.4694 23.0031 20.5484 22.8043 20.5485Z" fill="#F7F8F9"/>
</svg>
