<svg width="14" height="14" viewBox="0 0 14 14" fill="none" xmlns="http://www.w3.org/2000/svg">
<path fill-rule="evenodd" clip-rule="evenodd" d="M5.25 1.75C3.317 1.75 1.75 3.317 1.75 5.25C1.75 7.183 3.317 8.75 5.25 8.75C7.183 8.75 8.75 7.183 8.75 5.25C8.75 3.317 7.183 1.75 5.25 1.75ZM0 5.25C0 2.35051 2.35051 0 5.25 0C8.1495 0 10.5 2.35051 10.5 5.25C10.5 6.38385 10.1406 7.43375 9.5294 8.29197L13.7437 12.5063C14.0854 12.848 14.0854 13.402 13.7437 13.7437C13.402 14.0854 12.848 14.0854 12.5063 13.7437L8.29197 9.5294C7.43375 10.1406 6.38385 10.5 5.25 10.5C2.35051 10.5 0 8.1495 0 5.25Z" fill="#354155"/>
</svg>
