<svg width="30" height="31" viewBox="0 0 30 31" fill="none" xmlns="http://www.w3.org/2000/svg">
<rect x="0.5" y="1" width="29" height="29" rx="14.5" stroke="#E7E7E7"/>
<path d="M15.165 8H14.835C14.4372 8 14.0556 8.15804 13.7743 8.43934C13.493 8.72064 13.335 9.10218 13.335 9.5V9.635C13.3347 9.89804 13.2653 10.1564 13.1337 10.3841C13.002 10.6119 12.8128 10.801 12.585 10.9325L12.2625 11.12C12.0345 11.2517 11.7758 11.321 11.5125 11.321C11.2492 11.321 10.9905 11.2517 10.7625 11.12L10.65 11.06C10.3058 10.8614 9.89688 10.8076 9.513 10.9102C9.12913 11.0129 8.80166 11.2637 8.6025 11.6075L8.4375 11.8925C8.23895 12.2367 8.18508 12.6456 8.28773 13.0295C8.39038 13.4134 8.64115 13.7408 8.985 13.94L9.0975 14.015C9.32421 14.1459 9.51272 14.3338 9.64429 14.5601C9.77586 14.7864 9.84592 15.0432 9.8475 15.305V15.6875C9.84855 15.9518 9.77974 16.2117 9.64803 16.4409C9.51633 16.67 9.32641 16.8603 9.0975 16.9925L8.985 17.06C8.64115 17.2592 8.39038 17.5866 8.28773 17.9705C8.18508 18.3544 8.23895 18.7633 8.4375 19.1075L8.6025 19.3925C8.80166 19.7363 9.12913 19.9871 9.513 20.0898C9.89688 20.1924 10.3058 20.1386 10.65 19.94L10.7625 19.88C10.9905 19.7483 11.2492 19.679 11.5125 19.679C11.7758 19.679 12.0345 19.7483 12.2625 19.88L12.585 20.0675C12.8128 20.199 13.002 20.3881 13.1337 20.6159C13.2653 20.8436 13.3347 21.102 13.335 21.365V21.5C13.335 21.8978 13.493 22.2794 13.7743 22.5607C14.0556 22.842 14.4372 23 14.835 23H15.165C15.5628 23 15.9444 22.842 16.2257 22.5607C16.507 22.2794 16.665 21.8978 16.665 21.5V21.365C16.6653 21.102 16.7347 20.8436 16.8663 20.6159C16.998 20.3881 17.1872 20.199 17.415 20.0675L17.7375 19.88C17.9655 19.7483 18.2242 19.679 18.4875 19.679C18.7508 19.679 19.0095 19.7483 19.2375 19.88L19.35 19.94C19.6942 20.1386 20.1031 20.1924 20.487 20.0898C20.8709 19.9871 21.1983 19.7363 21.3975 19.3925L21.5625 19.1C21.7611 18.7558 21.8149 18.3469 21.7123 17.963C21.6096 17.5791 21.3588 17.2517 21.015 17.0525L20.9025 16.9925C20.6736 16.8603 20.4837 16.67 20.352 16.4409C20.2203 16.2117 20.1515 15.9518 20.1525 15.6875V15.3125C20.1515 15.0482 20.2203 14.7883 20.352 14.5591C20.4837 14.33 20.6736 14.1397 20.9025 14.0075L21.015 13.94C21.3588 13.7408 21.6096 13.4134 21.7123 13.0295C21.8149 12.6456 21.7611 12.2367 21.5625 11.8925L21.3975 11.6075C21.1983 11.2637 20.8709 11.0129 20.487 10.9102C20.1031 10.8076 19.6942 10.8614 19.35 11.06L19.2375 11.12C19.0095 11.2517 18.7508 11.321 18.4875 11.321C18.2242 11.321 17.9655 11.2517 17.7375 11.12L17.415 10.9325C17.1872 10.801 16.998 10.6119 16.8663 10.3841C16.7347 10.1564 16.6653 9.89804 16.665 9.635V9.5C16.665 9.10218 16.507 8.72064 16.2257 8.43934C15.9444 8.15804 15.5628 8 15.165 8Z" stroke="#5D6777" stroke-width="2" stroke-linecap="round" stroke-linejoin="round"/>
<path d="M15 17.75C16.2426 17.75 17.25 16.7426 17.25 15.5C17.25 14.2574 16.2426 13.25 15 13.25C13.7574 13.25 12.75 14.2574 12.75 15.5C12.75 16.7426 13.7574 17.75 15 17.75Z" stroke="#5D6777" stroke-width="2" stroke-linecap="round" stroke-linejoin="round"/>
</svg>
