<svg width="30" height="31" viewBox="0 0 30 31" fill="none" xmlns="http://www.w3.org/2000/svg">
<rect x="0.5" y="1" width="29" height="29" rx="14.5" stroke="#E7E7E7"/>
<g clip-path="url(#clip0_79_4005)">
<path d="M8.88752 12.965C8.77805 12.4719 8.79486 11.9591 8.93639 11.4743C9.07792 10.9894 9.33958 10.5481 9.69712 10.1913C10.0547 9.83451 10.4965 9.57377 10.9817 9.43326C11.4669 9.29275 11.9796 9.27701 12.4725 9.38751C12.7438 8.96324 13.1175 8.61408 13.5592 8.37223C14.0009 8.13037 14.4964 8.0036 15 8.0036C15.5036 8.0036 15.9991 8.13037 16.4408 8.37223C16.8825 8.61408 17.2562 8.96324 17.5275 9.38751C18.0211 9.27653 18.5348 9.29219 19.0208 9.43305C19.5067 9.5739 19.9491 9.83537 20.3069 10.1931C20.6647 10.5509 20.9261 10.9933 21.067 11.4793C21.2078 11.9652 21.2235 12.4789 21.1125 12.9725C21.5368 13.2438 21.886 13.6175 22.1278 14.0592C22.3697 14.5009 22.4964 14.9964 22.4964 15.5C22.4964 16.0036 22.3697 16.4991 22.1278 16.9408C21.886 17.3825 21.5368 17.7562 21.1125 18.0275C21.223 18.5204 21.2073 19.0332 21.0668 19.5184C20.9263 20.0035 20.6655 20.4454 20.3087 20.8029C19.9519 21.1605 19.5106 21.4221 19.0258 21.5636C18.5409 21.7052 18.0281 21.722 17.535 21.6125C17.2641 22.0384 16.8901 22.3891 16.4476 22.632C16.0052 22.8749 15.5085 23.0023 15.0038 23.0023C14.499 23.0023 14.0024 22.8749 13.5599 22.632C13.1175 22.3891 12.7435 22.0384 12.4725 21.6125C11.9796 21.723 11.4669 21.7073 10.9817 21.5668C10.4965 21.4263 10.0547 21.1655 9.69712 20.8087C9.33958 20.4519 9.07792 20.0106 8.93639 19.5258C8.79486 19.0409 8.77805 18.5281 8.88752 18.035C8.45999 17.7644 8.10783 17.3901 7.86381 16.9469C7.61978 16.5037 7.49182 16.006 7.49182 15.5C7.49182 14.9941 7.61978 14.4963 7.86381 14.0531C8.10783 13.6099 8.45999 13.2356 8.88752 12.965Z" stroke="#5D6777" stroke-width="2" stroke-linecap="round" stroke-linejoin="round"/>
<path d="M12.8175 13.25C12.9938 12.7488 13.3419 12.3261 13.8 12.0568C14.2581 11.7876 14.7967 11.6892 15.3204 11.779C15.8441 11.8689 16.3191 12.1411 16.6613 12.5476C17.0035 12.9541 17.1908 13.4686 17.19 14C17.19 15.5 14.94 16.25 14.94 16.25" stroke="#5D6777" stroke-width="2" stroke-linecap="round" stroke-linejoin="round"/>
<path d="M15 19.25H15.0083" stroke="#5D6777" stroke-width="2" stroke-linecap="round" stroke-linejoin="round"/>
</g>
<defs>
<clipPath id="clip0_79_4005">
<rect width="18" height="18" fill="white" transform="translate(6 6.5)"/>
</clipPath>
</defs>
</svg>
