<svg width="42" height="42" viewBox="0 0 42 42" fill="none" xmlns="http://www.w3.org/2000/svg">
<g clip-path="url(#clip0_259_8348)">
<rect width="42" height="42" rx="10" fill="#F7F8F9"/>
<g clip-path="url(#clip1_259_8348)">
<path d="M13 19.25H13C11.2051 19.25 9.75 17.795 9.75 16V13C9.75 11.2051 11.2051 9.75 13 9.75H16C17.7949 9.75 19.25 11.2051 19.25 13V16C19.25 17.7949 17.7949 19.25 16 19.25H13Z" stroke="#354155" stroke-width="1.5"/>
<path d="M22.7498 13V13C22.7497 11.2051 24.2048 9.75 25.9997 9.75H28.9997C30.7947 9.75 32.2497 11.2051 32.2497 13V16C32.2497 17.7949 30.7947 19.25 28.9997 19.25H25.9997C24.2048 19.25 22.7498 17.7949 22.7498 16V13Z" stroke="#354155" stroke-width="1.5"/>
<path d="M13 32.25H13C11.2051 32.25 9.75 30.7949 9.75 29V26C9.75 24.2051 11.2051 22.75 13 22.75H16C17.7949 22.75 19.25 24.2051 19.25 26V29C19.25 30.7949 17.7949 32.25 16 32.25H13Z" stroke="#354155" stroke-width="1.5"/>
<path d="M22.7498 26V26C22.7497 24.2051 24.2048 22.75 25.9997 22.75H28.9997C30.7947 22.75 32.2497 24.2051 32.2497 26V29C32.2497 30.7949 30.7946 32.25 28.9997 32.25H25.9997C24.2048 32.25 22.7498 30.7949 22.7498 29V26Z" stroke="#354155" stroke-width="1.5"/>
</g>
</g>
<rect x="0.5" y="0.5" width="41" height="41" rx="9.5" stroke="#E7E7E7"/>
<defs>
<clipPath id="clip0_259_8348">
<rect width="42" height="42" rx="10" fill="white"/>
</clipPath>
<clipPath id="clip1_259_8348">
<rect width="24" height="24" fill="white" transform="translate(9 9)"/>
</clipPath>
</defs>
</svg>
