<svg width="24" height="25" viewBox="0 0 24 25" fill="none" xmlns="http://www.w3.org/2000/svg">
<path d="M11.9998 17.5171L7.84984 20.0171C7.66651 20.1337 7.47484 20.1837 7.27484 20.1671C7.07484 20.1504 6.89984 20.0837 6.74984 19.9671C6.59984 19.8504 6.48317 19.7047 6.39984 19.5301C6.31651 19.3554 6.29984 19.1594 6.34984 18.9421L7.44984 14.2171L3.77484 11.0421C3.60817 10.8921 3.50417 10.7211 3.46284 10.5291C3.42151 10.3371 3.43384 10.1497 3.49984 9.96708C3.56584 9.78441 3.66584 9.63441 3.79984 9.51708C3.93384 9.39974 4.11717 9.32474 4.34984 9.29208L9.19984 8.86708L11.0748 4.41708C11.1582 4.21708 11.2875 4.06708 11.4628 3.96708C11.6382 3.86708 11.8172 3.81708 11.9998 3.81708C12.1825 3.81708 12.3615 3.86708 12.5368 3.96708C12.7122 4.06708 12.8415 4.21708 12.9248 4.41708L14.7998 8.86708L19.6498 9.29208C19.8832 9.32541 20.0665 9.40041 20.1998 9.51708C20.3332 9.63374 20.4332 9.78374 20.4998 9.96708C20.5665 10.1504 20.5792 10.3381 20.5378 10.5301C20.4965 10.7221 20.3922 10.8927 20.2248 11.0421L16.5498 14.2171L17.6498 18.9421C17.6998 19.1587 17.6832 19.3547 17.5998 19.5301C17.5165 19.7054 17.3998 19.8511 17.2498 19.9671C17.0998 20.0831 16.9248 20.1497 16.7248 20.1671C16.5248 20.1844 16.3332 20.1344 16.1498 20.0171L11.9998 17.5171Z" fill="white"/>
</svg>
